<?xml version="1.0" encoding="UTF-8"?>
<!DOCTYPE svg PUBLIC "-//W3C//DTD SVG 1.1//EN" "http://www.w3.org/Graphics/SVG/1.1/DTD/svg11.dtd">
<!-- Creator: CorelDRAW -->
<svg xmlns="http://www.w3.org/2000/svg" xml:space="preserve" width="6.82666in" height="6.82666in" style="shape-rendering:geometricPrecision; text-rendering:geometricPrecision; image-rendering:optimizeQuality; fill-rule:evenodd; clip-rule:evenodd"
viewBox="0 0 6.82666 6.82666"
 xmlns:xlink="http://www.w3.org/1999/xlink">
 <defs>
  <style type="text/css">
   <![CDATA[
    .fil1 {fill:none}
    .fil0 {fill:#212121;fill-rule:nonzero}
   ]]>
  </style>
 </defs>
 <g id="Layer_x0020_1">
  <metadata id="CorelCorpID_0Corel-Layer"/>
  <path class="fil0" d="M3.43488 2.03337l2.22185 -1.16754 0.0495827 0.0941654 -0.0496181 -0.0944252c0.0521457,-0.0274016 0.116642,-0.00733858 0.144043,0.0448071 0.00861417,0.0163898 0.0125315,0.0340039 0.0122441,0.0512992l0 4.33515c0,0.0589094 -0.0477598,0.106669 -0.106669,0.106669 -0.0205433,0 -0.0397283,-0.00581496 -0.0560079,-0.0158819l-2.21543 -1.16417 -2.31454 0c-0.0589094,0 -0.106669,-0.0477598 -0.106669,-0.106669l0 -1.97674c0,-0.0589094 0.0477598,-0.106669 0.106669,-0.106669l2.31454 0zm2.16476 -0.897102l-2.08297 1.09456c-0.0162795,0.0100669 -0.0354646,0.0158819 -0.0560079,0.0158819l-2.23366 0 0 1.76341 2.23198 0c0.0172953,-0.000287402 0.0349094,0.00362992 0.0512992,0.0122441l-0.0496181 0.0944252 0.0495827 -0.0941654 2.08939 1.09794 0 -3.98429z"/>
  <path class="fil0" d="M1.90151 4.01012l0.905587 0 0.135587 0 -0.032252 0.131669 -0.428602 1.74987 -0.02 0.0816693 -0.0833346 0 -0.905583 0 -0.135583 0 0.032248 -0.131669 0.428598 -1.74987 0.0200039 -0.0816693 0.0833307 0zm0.77 0.213339l-0.686669 0 -0.376346 1.53654 0.686669 0 0.376346 -1.53654z"/>
  <polygon class="fil0" points="2.0164,2.46544 2.93888,2.46544 2.93888,2.67878 2.0164,2.67878 "/>
 </g>
 <rect class="fil1" width="6.82666" height="6.82666"/>
</svg>
